<?xml version="1.0" encoding="UTF-8"?>
<svg width="128px" height="128px" viewBox="0 0 128 128" version="1.1" xmlns="http://www.w3.org/2000/svg" xmlns:xlink="http://www.w3.org/1999/xlink">
    <!-- Generator: Sketch 52.5 (67469) - http://www.bohemiancoding.com/sketch -->
    <title>Untitled</title>
    <desc>Created with Sketch.</desc>
    <g id="Page-1" stroke="none" stroke-width="1" fill="none" fill-rule="evenodd">
        <g id="iconfinder_office-45_809584" fill="#000000" fill-rule="nonzero">
            <path d="M126.4,35.2 L90.6666667,1.6 C88.5333333,-0.533333333 85.3333333,-0.533333333 83.2,1.6 L58.1333333,26.6666667 C56,28.8 56,32 58.1333333,34.1333333 L66.1333333,44.2666667 C55.4666667,49.6 42.6666667,48 33.0666667,40.5333333 L0,113.066667 L14.9333333,128 L88,94.4 C80,84.8 78.9333333,72 84.2666667,61.3333333 L94.4,69.3333333 C96.5333333,71.4666667 99.7333333,71.4666667 101.866667,69.3333333 L126.4,42.6666667 C128.533333,40.5333333 128.533333,37.3333333 126.4,35.2 Z M14.9333333,120.533333 L13.3333333,118.933333 L42.6666667,89.0666667 C44.2666667,90.1333333 45.8666667,90.6666667 48,90.6666667 C53.8666667,90.6666667 58.6666667,85.8666667 58.6666667,80 C58.6666667,74.1333333 53.8666667,69.3333333 48,69.3333333 C42.1333333,69.3333333 37.3333333,74.1333333 37.3333333,80 C37.3333333,82.1333333 37.8666667,83.7333333 38.9333333,85.3333333 L9.06666667,115.2 L7.46666667,113.6 C7.46666667,113.6 35.7333333,54.4 37.3333333,49.0666667 C43.7333333,55.4666667 65.6,55.4666667 71.4666667,49.6 C72.5333333,50.6666667 74.1333333,52.2666667 78.9333333,57.0666667 C73.0666667,62.9333333 73.6,85.8666667 79.4666667,91.2 C73.6,92.8 14.9333333,120.533333 14.9333333,120.533333 Z M42.6666667,80 C42.6666667,76.8 44.8,74.6666667 48,74.6666667 C51.2,74.6666667 53.3333333,76.8 53.3333333,80 C53.3333333,83.2 51.2,85.3333333 48,85.3333333 C44.8,85.3333333 42.6666667,83.2 42.6666667,80 Z M97.6,58.6666667 L69.3333333,30.4 L86.9333333,12.8 L115.2,39.4666667 L97.6,58.6666667 Z" id="Shape"></path>
        </g>
    </g>
</svg>