<?xml version="1.0" encoding="UTF-8"?>
<svg xmlns="http://www.w3.org/2000/svg" xmlns:xlink="http://www.w3.org/1999/xlink" width="128pt" height="128pt" viewBox="0 0 128 128" version="1.1">
<g id="surface1">
<path style=" stroke:none;fill-rule:nonzero;fill:rgb(0%,0%,0%);fill-opacity:1;" d="M 118.488281 54.117188 L 106.175781 45.453125 C 106.304688 45.105469 106.34375 44.683594 106.328125 44.273438 C 106.316406 41.28125 106.328125 38.273438 106.328125 35.277344 C 106.328125 32.28125 106.34375 29.273438 106.328125 26.277344 C 106.316406 24.613281 105.832031 24.089844 104.179688 24.089844 C 100.25 24.078125 96.308594 24.078125 92.378906 24.089844 C 90.753906 24.101562 90.253906 24.628906 90.238281 26.304688 L 90.226562 34.238281 L 65.867188 17.089844 C 64.0625 15.820312 63.921875 15.808594 62.15625 17.050781 L 31.015625 38.976562 C 23.808594 44.042969 16.574219 49.125 9.355469 54.222656 C 7.898438 55.246094 7.640625 56 8.460938 57.191406 C 10.816406 60.621094 13.183594 64.039062 15.589844 67.417969 C 15.921875 67.878906 16.511719 68.148438 17.035156 68.558594 C 17.703125 68.171875 18.253906 67.890625 18.753906 67.546875 L 21.363281 65.703125 C 21.261719 66.046875 21.210938 66.433594 21.210938 66.855469 C 21.234375 80.945312 21.222656 95.054688 21.234375 109.144531 C 21.234375 111.371094 21.734375 111.886719 23.921875 111.886719 L 50.535156 111.886719 C 52.800781 111.886719 53.183594 111.476562 53.183594 109.171875 L 53.183594 71.511719 L 74.804688 71.511719 L 74.804688 109.351562 C 74.804688 111.410156 75.265625 111.886719 77.261719 111.886719 L 104 111.886719 C 105.984375 111.886719 106.496094 111.359375 106.496094 109.375 C 106.496094 95.066406 106.484375 80.753906 106.507812 66.457031 C 106.507812 66.136719 106.46875 65.855469 106.417969 65.585938 L 109.261719 67.597656 C 110.925781 68.773438 111.578125 68.644531 112.730469 66.996094 L 119.140625 57.777344 C 120.421875 55.960938 120.308594 55.398438 118.488281 54.117188 Z M 118.488281 54.117188 "/>
</g>
</svg>
