<?xml version="1.0" encoding="UTF-8"?>
<svg width="128px" height="128px" viewBox="0 0 128 128" version="1.1" xmlns="http://www.w3.org/2000/svg" xmlns:xlink="http://www.w3.org/1999/xlink">
    <!-- Generator: Sketch 52.5 (67469) - http://www.bohemiancoding.com/sketch -->
    <title>Untitled</title>
    <desc>Created with Sketch.</desc>
    <g id="Page-1" stroke="none" stroke-width="1" fill="none" fill-rule="evenodd">
        <g id="iconfinder_pin-outline_216358" fill="#000000" fill-rule="nonzero">
            <path d="M116.878222,39.7226667 L88.448,11.136 C83.1004444,5.76 73.7777778,5.70311111 68.3235556,11.0933333 C66.9297778,12.4871111 65.8346667,14.1937778 65.3511111,15.5662222 C60.7075556,25.2515556 55.7226667,31.3173333 49.3226667,34.9582222 L47.7795556,35.7048889 C40.896,39.1537778 31.5306667,42.6666667 14.2222222,42.6666667 C12.3306667,42.6666667 10.5173333,43.0364444 8.77511111,43.7475556 C5.33333333,45.184 2.52444444,47.9786667 1.08088889,51.456 C-0.334222222,54.8977778 -0.334222222,58.8586667 1.08088889,62.3004444 C1.82044444,64.0711111 2.85866667,65.6497778 4.17422222,66.9297778 L27.1786667,89.9342222 L0,128 L38.0586667,100.821333 L61.0062222,123.768889 C62.3288889,125.112889 63.8933333,126.179556 65.6711111,126.904889 C67.4275556,127.637333 69.248,128 71.1182222,128 C72.9884444,128 74.8088889,127.630222 76.5582222,126.904889 C80.0995556,125.447111 82.8373333,122.695111 84.2382222,119.239111 C84.9706667,117.518222 85.3404444,115.633778 85.3404444,113.777778 C85.3404444,96.4551111 88.8533333,87.0968889 92.2951111,80.2062222 C95.8222222,73.152 102.030222,67.776 111.879111,63.04 C113.806222,62.3004444 115.505778,61.2195556 116.935111,59.7902222 C122.424889,54.2293333 122.396444,45.2053333 116.878222,39.7226667 Z M79.5591111,73.8631111 C73.7351111,85.5466667 71.1111111,97.8275556 71.0613333,113.713778 L14.2222222,56.8888889 C29.4328889,56.8888889 41.344,54.5066667 52.5937778,49.1804444 L54.2648889,48.4337778 C64.2133333,43.4631111 71.8151111,34.9724444 78.3573333,21.1697778 L106.261333,49.9768889 C93.0133333,56.3271111 84.5297778,63.9146667 79.5591111,73.8631111 Z" id="Shape"></path>
        </g>
    </g>
</svg>