<?xml version="1.0" encoding="UTF-8"?>
<svg width="128px" height="128px" viewBox="0 0 128 128" version="1.1" xmlns="http://www.w3.org/2000/svg" xmlns:xlink="http://www.w3.org/1999/xlink">
    <!-- Generator: Sketch 52.5 (67469) - http://www.bohemiancoding.com/sketch -->
    <title>Untitled</title>
    <desc>Created with Sketch.</desc>
    <g id="Page-1" stroke="none" stroke-width="1" fill="none" fill-rule="evenodd">
        <g id="qurann" fill="#000000" fill-rule="nonzero">
            <path d="M85.1706047,93.0011429 L85.504,92.9243429 C89.1028837,92.1197714 92.8267907,91.2859429 96.3750698,89.5926857 C98.920186,88.3785143 101.61414,87.4130286 104.224744,86.4804571 C105.239814,86.1147429 106.254884,85.7526857 107.269953,85.3686857 C108.56186,84.8859429 109.874605,84.4873143 111.187349,84.0850286 C114.67907,83.0208 118.269023,81.8614857 121.552372,79.2576 C121.796465,79.3014857 122.025674,79.3197714 122.234047,79.3197714 C122.496,79.3197714 122.722233,79.2978286 122.903814,79.2758857 L123.183628,79.2539429 C124.416,79.2429714 125.410233,78.0032 125.398326,76.4891429 C125.386419,74.9824 124.392186,73.7682286 123.165767,73.7682286 C123.103256,73.7682286 123.022884,73.7718857 122.951442,73.7755429 C122.865116,72.4370286 122.781767,71.0838857 122.701395,69.7161143 C122.412651,64.9142857 122.114977,59.9515429 121.555349,55.0034286 C121.216,51.9862857 121.037395,48.8521143 120.870698,45.824 C120.742698,43.5748571 120.614698,41.3257143 120.427163,39.0802286 C120.022326,34.2784 119.617488,28.7049143 119.873488,23.2813714 C119.91814,22.4475429 119.91814,21.6064 119.873488,20.7798857 C119.766326,18.5014857 119.435907,15.9853714 117.810605,14.6212571 C116.179349,13.2534857 114.122419,13.7910857 112.300651,14.5225143 C112.190512,14.5700571 111.895814,14.5956571 111.660651,14.6139429 C111.428465,14.6358857 111.196279,14.6578286 110.970047,14.6907429 C110.651535,14.7419429 110.359814,14.8809143 110.100837,15.0710857 C110.06214,14.2555429 109.996651,13.4473143 109.913302,12.6317714 C109.800186,11.4907429 109.693023,10.4228571 109.731721,9.4208 C109.853767,6.48411429 108.005209,5.376 107.177674,4.88228571 C103.394233,2.60022857 99.3756279,2.84891429 96.1428837,3.06468571 C88.448,3.54011429 81.1341395,5.62468571 74.4126512,9.27085714 L72.832,10.1083429 C69.5516279,11.8345143 66.164093,13.6118857 63.3570233,17.024 C63.1933023,16.9179429 63.0206512,16.7936 62.9402791,16.7350857 C56.5611163,12.0832 50.0688372,8.18102857 43.648,5.13828571 C37.4325581,2.17965714 31.6695814,0.822857143 26.2876279,0.826514286 C22.9566512,0.859428571 20.1257674,2.53074286 17.8515349,3.87657143 C15.3986977,5.32845714 15.2468837,8.59062857 15.1992558,9.65851429 C15.1129302,11.4468571 14.9849302,13.2315429 14.8450233,15.0162286 C14.7378605,14.9979429 14.6366512,14.9394286 14.5294884,14.9394286 C13.6751628,15.0198857 12.8416744,14.5517714 11.8444651,14.0544 C11.4723721,13.8715429 11.1002791,13.6850286 10.7252093,13.5204571 C8.98976744,12.7414857 7.808,13.2571429 7.12334884,13.824 C6.43572093,14.3872 5.59925581,15.5428571 5.51888372,17.8358857 C5.39088372,21.5186286 5.10213953,25.2818286 4.82232558,28.9243429 C4.54251163,32.5522286 4.25674419,36.3081143 4.11683721,40.0530286 C3.87869767,46.6066286 3.37265116,52.4361143 2.57488372,57.8706286 C1.96762791,61.9922286 1.77116279,66.1833143 1.58065116,70.2390857 C1.51813953,71.6288 1.45265116,73.0185143 1.36930233,74.4009143 C1.16986047,77.7545143 2.54809302,80.0438857 5.25097674,80.8448 C10.2548837,82.3369143 15.2706977,84.3264 20.1257674,86.2500571 C22.3374884,87.1277714 24.5462326,88.0018286 26.763907,88.8393143 C31.9077209,90.7776 37.1586977,92.5842286 42.24,94.3323429 C45.1095814,95.3197714 47.9791628,96.3035429 50.8338605,97.3165714 L51.1523721,97.4262857 C51.7715349,97.6493714 52.3490233,97.8688 52.8997209,98.1101714 C52.0453953,98.4137143 51.188093,98.7062857 50.3307907,98.9915429 C48.9287442,99.4633143 47.5296744,99.9314286 46.1484651,100.476343 C43.7134884,101.434514 41.2904186,102.4512 38.8643721,103.464229 C34.2117209,105.417143 29.3983256,107.435886 24.6117209,108.971886 C17.9170233,111.118629 11.5348837,114.289371 5.3492093,117.456457 C5.35813953,116.644571 5.45934884,115.777829 5.56948837,114.837943 C5.70046512,113.729829 5.82251163,112.625371 5.84037209,111.517257 C5.84037209,111.36 5.84930233,111.235657 5.8612093,111.140571 C5.92372093,111.144229 6.00409302,111.1552 6.09934884,111.173486 C8.61172093,111.689143 11.2669767,110.858971 13.812093,108.832914 C19.595907,104.202971 22.9864186,99.0829714 24.4777674,92.7085714 C24.820093,91.2566857 24.1354419,89.7353143 22.9506977,89.3147429 C21.7689302,88.9014857 20.5276279,89.7353143 20.1882791,91.1945143 C18.9946047,96.2962286 16.2768372,100.315429 11.3830698,104.228571 C9.75776744,105.519543 8.22176744,106.049829 6.8107907,105.757257 C4.83423256,105.365943 3.6107907,106.122971 2.92911628,106.821486 C1.92595349,107.856457 1.40204651,109.407086 1.37823256,111.425829 C1.36632558,112.299886 1.25618605,113.1776 1.15497674,114.051657 C0.925767442,115.982629 0.720372093,118.136686 1.20260465,120.418743 C0.970418605,121.080686 0.946604651,121.845029 1.18772093,122.558171 C1.664,123.9552 2.96186047,124.609829 4.10790698,124.032 L5.28372093,123.428571 C11.8831628,120.0384 18.7088372,116.5312 25.7458605,114.274743 C30.6902326,112.687543 35.5810233,110.635886 40.3110698,108.653714 C42.7103256,107.651657 45.1066047,106.642286 47.5147907,105.691429 C48.8334884,105.172114 50.1700465,104.725943 51.5066047,104.279771 C52.5157209,103.939657 53.5218605,103.6032 54.528,103.237486 L54.8256744,103.127771 C55.8139535,102.776686 57.1296744,102.304914 58.2013023,100.911543 C58.24,100.911543 58.2816744,100.911543 58.3263256,100.911543 C60.7315349,100.823771 62.9849302,101.877029 65.3454884,102.926629 C67.4887442,103.8848 69.7034419,104.725943 71.9211163,105.567086 C73.4690233,106.152229 75.0169302,106.737371 76.544,107.370057 C79.6874419,108.664686 82.8606512,110.200686 85.9237209,111.685486 L88.4003721,112.877714 C95.627907,116.3264 103.132279,119.124114 110.395535,121.826743 L112.809674,122.737371 C114.82493,123.52 116.902698,124.324571 119.221581,124.580571 C119.418047,124.602514 119.641302,124.6208 119.873488,124.6208 C120.665302,124.6208 121.614884,124.426971 122.412651,123.578514 C123.53786,122.382629 123.615256,120.608914 123.642047,120.031086 C123.707535,118.531657 123.787907,117.032229 123.865302,115.536457 L124.076651,111.352686 C124.145116,109.725257 123.680744,108.247771 122.790698,107.311543 C121.998884,106.466743 120.930233,106.144914 119.867535,106.404571 C116.548465,107.242057 114.464744,105.197714 111.333209,101.803886 L110.297302,100.695771 C109.035163,99.3682286 108.020093,97.6493714 106.948465,95.8317714 C106.251907,94.6432 105.546419,93.4582857 104.68614,92.1856 C103.760372,90.4301714 102.560744,89.7097143 101.105116,90.0790857 C99.8995349,90.3753143 99.1136744,91.8235429 99.3547907,93.3083429 C99.5393488,94.4201143 100.244837,95.2393143 101.093209,95.4550857 C101.185488,95.6233143 101.283721,95.7805714 101.38493,95.9268571 C102.081488,96.9179429 102.703628,97.9858286 103.331721,99.0500571 C104.510512,101.046857 105.728,103.109486 107.389023,104.861257 L108.377302,105.921829 C111.157581,108.928 114.565953,112.643657 119.566884,112 L119.40614,115.181714 C119.343628,116.425143 119.27814,117.664914 119.203721,119.0656 C117.52186,118.816914 115.881674,118.180571 114.152186,117.507657 L111.690419,116.578743 C104.513488,113.905371 97.0894884,111.140571 90.0197209,107.765029 L87.563907,106.583771 C84.4442791,105.077029 81.2174884,103.515429 77.9698605,102.173257 C76.4100465,101.525943 74.8204651,100.926171 73.239814,100.3264 C71.5668837,99.6937143 69.9207442,99.0281143 68.2805581,98.3405714 C68.5633488,98.2601143 68.8461395,98.1869714 69.1170233,98.0845714 C75.4991628,95.6269714 80.4524651,94.0580571 85.1706047,93.0011429 Z M74.5882791,15.1625143 L76.2165581,14.2994286 C82.4379535,10.9238857 89.216,8.98925714 96.372093,8.5504 C99.3666977,8.36754286 102.465488,8.15908571 105.254698,9.84137143 C105.254698,9.84137143 105.254698,9.84137143 105.257674,9.84502857 C105.254698,11.0628571 105.370791,12.2075429 105.48093,13.3156571 C105.558326,14.0873143 105.641674,14.8589714 105.665488,15.6379429 C105.850047,21.1638857 105.981023,26.6861714 106.114977,32.2157714 C106.269767,38.4365714 106.421581,44.6610286 106.638884,50.8781714 C106.686512,52.1289143 106.644837,53.3796571 106.603163,54.6267429 C106.531721,56.9453714 106.457302,59.3444571 106.841302,61.8569143 C107.133023,63.7147429 107.12707,65.6091429 107.019907,67.3865143 C106.269767,67.4267429 105.45414,67.2731429 104.599814,67.1085714 L103.611535,66.9293714 C97.0835349,65.8870857 90.6150698,66.5270857 84.3728372,68.8128 C77.5173953,71.3325714 71.1054884,74.7776 65.3127442,79.0454857 C65.2323721,79.1076571 65.152,79.1222857 65.0686512,79.1771429 C65.2621395,74.7556571 65.1906977,70.3451429 65.1013953,66.0553143 C65.0210233,62.0470857 64.9346977,57.9035429 65.0894884,53.8733714 C65.3157209,47.9158857 65.2710698,41.8816 65.2234419,36.0448 C65.1996279,32.9142857 65.1728372,29.7837714 65.1906977,26.6532571 C65.1966512,25.3037714 65.3186977,23.9579429 65.4377674,22.6084571 C65.4556279,22.4109714 65.4705116,22.2134857 65.4883721,22.0123429 C65.7592558,21.8002286 66.0271628,21.5405714 66.2891163,21.2041143 C68.5127442,18.3552 71.4626977,16.8009143 74.5882791,15.1625143 Z M17.3186977,49.6822857 C17.6848372,45.2425143 17.8187907,40.7588571 17.9467907,36.4178286 C18.0033488,34.5526857 18.059907,32.6875429 18.1343256,30.8260571 C18.2772093,27.2457143 18.5986977,23.5885714 18.9082791,20.0521143 C19.1970233,16.7716571 19.4946977,13.3741714 19.6584186,9.984 C19.6971163,9.11725714 19.8102326,8.83565714 19.7983256,8.82468571 C22.1767442,7.41668571 24.168186,6.33782857 26.3233488,6.31954286 C31.2528372,6.35245714 36.3549767,7.55565714 42.0375814,10.2619429 C48.232186,13.1949714 54.4982326,16.9618286 60.660093,21.4601143 C60.7613023,21.5332571 60.8863256,21.6210286 61.0202791,21.7124571 C61.0113488,21.8112 61.0053953,21.9099429 60.9964651,22.0050286 C60.8625116,23.5446857 60.7285581,25.0806857 60.7226047,26.6130286 C60.7077209,29.7691429 60.7315349,32.9325714 60.7553488,36.0886857 C60.8,41.8523429 60.8476279,47.8098286 60.6273488,53.6100571 C60.4636279,57.8340571 60.5529302,62.08 60.6362791,66.1869714 C60.7226047,70.3817143 60.7583256,74.6934857 60.5707907,78.9357714 C60.4457674,78.8589714 60.3386047,78.8297143 60.2106047,78.7419429 L58.8055814,77.8130286 C56.5283721,76.3026286 54.1707907,74.7410286 51.5750698,73.5890286 C46.8539535,71.5044571 41.9691163,70.0745143 37.376,68.7908571 C32.7352558,67.4925714 28.3445581,66.8416 24.1056744,66.8416 C21.5873488,66.8416 19.1226047,67.072 16.6906047,67.5291429 C16.4643721,67.5730286 16.2946977,67.5949714 16.1666977,67.6022857 C16.151814,67.4230857 16.139907,67.1707429 16.1488372,66.8269714 C16.2500465,62.2555429 16.6489302,57.5926857 17.035907,53.0797714 L17.3186977,49.6822857 Z M52.0751628,92.0502857 C49.2026047,91.0336 46.324093,90.0425143 43.4426047,89.0550857 C38.388093,87.3142857 33.163907,85.5222857 28.0736744,83.6022857 C25.8738605,82.7721143 23.6859535,81.9053714 21.4950698,81.0386286 C16.5655814,79.0820571 11.4664186,77.0633143 6.30176744,75.52 C6.00706977,75.4358857 5.86716279,75.3444571 5.83739535,75.3444571 C5.82548837,75.2786286 5.80762791,75.1177143 5.82548837,74.8068571 C5.90883721,73.3952 5.97432558,71.9835429 6.03981395,70.5682286 C6.22437209,66.6770286 6.41190698,62.6505143 6.96855814,58.8617143 C7.80502326,53.1785143 8.33190698,47.1113143 8.57897674,40.3126857 C8.71293023,36.7030857 8.99572093,33.0166857 9.2695814,29.4509714 C9.5255814,26.1156571 9.79051163,22.6742857 9.95423256,19.0427429 C10.0286512,19.0793143 10.100093,19.1195429 10.1745116,19.1524571 C11.3830698,19.7522286 12.7583256,20.4324571 14.3925581,20.4178286 C14.1008372,23.7421714 13.812093,27.1469714 13.6781395,30.5627429 C13.6037209,32.4461714 13.5471628,34.3296 13.4906047,36.2166857 C13.3626047,40.4699429 13.2316279,44.8658286 12.8803721,49.1337143 L12.5946047,52.5092571 C12.2016744,57.1245714 11.7938605,61.8934857 11.6866977,66.6770286 C11.6658605,67.5547429 11.6063256,70.2244571 13.1304186,71.8738286 C14.4580465,73.3110857 16.1815814,73.1757714 17.3693023,72.9526857 C23.3227907,71.8409143 29.5412093,72.2249143 36.3847442,74.1449143 C40.8468837,75.392 45.579907,76.7744 50.059907,78.7529143 C52.3430698,79.7659429 54.4535814,81.1666286 56.6861395,82.6441143 L58.112,83.5876571 C59.0705116,84.2166857 60.0022326,84.6592 60.9101395,84.9444571 C61.2643721,85.9136 62.0353488,86.5718857 62.9253953,86.5718857 C63.0027907,86.5718857 63.0831628,86.5682286 63.1635349,86.5572571 C63.9523721,86.4548571 64.5655814,85.8368 64.896,85.0212571 C65.8187907,84.7725714 66.7237209,84.3922286 67.6107907,83.7412571 C73.0850233,79.7037714 79.1546047,76.4452571 85.6528372,74.0608 C91.287814,71.9945143 97.1371163,71.4166857 103.034047,72.3638857 L103.921116,72.5211429 C105.254698,72.7771429 106.859163,73.0843429 108.532093,72.6674286 C108.701767,72.7186286 108.871442,72.7442286 109.04707,72.7442286 L110.371721,72.7442286 C111.604093,72.7442286 112.604279,71.5154286 112.604279,70.0013714 C112.604279,68.9846857 112.154791,68.096 111.485023,67.6242286 C111.60707,65.5104 111.601116,63.1990857 111.234977,60.8329143 C110.940279,58.9312 111.002791,56.9453714 111.068279,54.8352 C111.11293,53.4345143 111.151628,52.0374857 111.106977,50.6404571 C110.886698,44.4489143 110.734884,38.2464 110.58307,32.0512 C110.484837,27.9661714 110.368744,23.8884571 110.249674,19.8070857 C110.639628,20.0557714 111.074233,20.2130286 111.544558,20.1398857 L111.99107,20.0886857 C112.479256,20.0448 113.083535,19.9899429 113.702698,19.7339429 C114.503442,19.4121143 114.970791,19.3060571 115.226791,19.2731429 C115.289302,19.5693714 115.375628,20.1216 115.420279,21.1090286 C115.450047,21.7197714 115.450047,22.3341714 115.420279,22.9485714 C115.140465,28.7926857 115.56614,34.6294857 115.98586,39.6470857 C116.173395,41.8267429 116.295442,44.0100571 116.420465,46.2006857 C116.596093,49.3238857 116.774698,52.5458286 117.13786,55.7568 C117.676651,60.5330286 117.968372,65.4043429 118.251163,70.1184 C118.352372,71.7933714 118.453581,73.4390857 118.563721,75.0738286 C116.030512,76.8914286 113.157953,77.8313143 110.115721,78.7602286 C108.725581,79.1844571 107.329488,79.6086857 105.96614,80.1206857 C104.96893,80.4973714 103.971721,80.8521143 102.974512,81.2105143 C100.277581,82.1796571 97.4853953,83.1744 94.7586977,84.4763429 C91.6063256,85.9794286 88.0967442,86.7693714 84.7032558,87.5264 L84.3668837,87.6032 C79.464186,88.704 74.344186,90.3241143 67.7715349,92.8585143 C67.3756279,93.0121143 66.9648372,93.1145143 66.5570233,93.2242286 C65.1996279,93.5826286 63.4076279,94.1348571 62.0145116,96.0182857 C60.811907,95.7037714 59.5646512,95.4697143 58.2370233,95.4404571 C58.1774884,95.4404571 58.088186,95.4514286 58.0167442,95.4514286 C56.2783256,93.6228571 54.2362791,92.8219429 52.3877209,92.1673143 L52.0751628,92.0502857 Z" id="Shape"></path>
        </g>
    </g>
</svg>